<mxfile host="app.diagrams.net" modified="2024-05-27T04:29:37.274Z" agent="Mozilla/5.0 (Windows NT 10.0; Win64; x64) AppleWebKit/537.36 (KHTML, like Gecko) Chrome/125.0.0.0 Safari/537.36" etag="lqZQI8xiU5nClPuXthVU" version="24.4.7" type="github">
  <diagram name="第 1 页" id="mfHisvYI-bYZX6DcVKO9">
    <mxGraphModel dx="2074" dy="2301" grid="1" gridSize="10" guides="1" tooltips="1" connect="1" arrows="1" fold="1" page="1" pageScale="1" pageWidth="827" pageHeight="1169" math="0" shadow="0">
      <root>
        <mxCell id="0" />
        <mxCell id="1" parent="0" />
        <mxCell id="Hes8ryXdUXJPciG0gUAV-11" value="Common Module" style="swimlane;" vertex="1" parent="1">
          <mxGeometry x="110" y="-584" width="790" height="1494" as="geometry" />
        </mxCell>
        <mxCell id="Hes8ryXdUXJPciG0gUAV-22" value="" style="edgeStyle=orthogonalEdgeStyle;rounded=0;orthogonalLoop=1;jettySize=auto;html=1;" edge="1" parent="Hes8ryXdUXJPciG0gUAV-11" source="Hes8ryXdUXJPciG0gUAV-6" target="Hes8ryXdUXJPciG0gUAV-20">
          <mxGeometry relative="1" as="geometry" />
        </mxCell>
        <mxCell id="Hes8ryXdUXJPciG0gUAV-6" value="Package" style="shape=folder;fontStyle=1;tabWidth=110;tabHeight=30;tabPosition=left;html=1;boundedLbl=1;labelInHeader=1;container=1;collapsible=0;whiteSpace=wrap;" vertex="1" parent="Hes8ryXdUXJPciG0gUAV-11">
          <mxGeometry x="10" y="200" width="150" height="100" as="geometry" />
        </mxCell>
        <mxCell id="Hes8ryXdUXJPciG0gUAV-7" value="&lt;span style=&quot;font-weight: 700;&quot;&gt;config&lt;/span&gt;" style="html=1;strokeColor=none;resizeWidth=1;resizeHeight=1;fillColor=none;part=1;connectable=0;allowArrows=0;deletable=0;whiteSpace=wrap;" vertex="1" parent="Hes8ryXdUXJPciG0gUAV-6">
          <mxGeometry width="150" height="70" relative="1" as="geometry">
            <mxPoint y="30" as="offset" />
          </mxGeometry>
        </mxCell>
        <mxCell id="Hes8ryXdUXJPciG0gUAV-27" value="" style="edgeStyle=orthogonalEdgeStyle;rounded=0;orthogonalLoop=1;jettySize=auto;html=1;" edge="1" parent="Hes8ryXdUXJPciG0gUAV-11" source="Hes8ryXdUXJPciG0gUAV-8" target="Hes8ryXdUXJPciG0gUAV-21">
          <mxGeometry relative="1" as="geometry" />
        </mxCell>
        <mxCell id="Hes8ryXdUXJPciG0gUAV-8" value="Package" style="shape=folder;fontStyle=1;tabWidth=110;tabHeight=30;tabPosition=left;html=1;boundedLbl=1;labelInHeader=1;container=1;collapsible=0;whiteSpace=wrap;" vertex="1" parent="Hes8ryXdUXJPciG0gUAV-11">
          <mxGeometry x="10" y="760" width="150" height="100" as="geometry" />
        </mxCell>
        <mxCell id="Hes8ryXdUXJPciG0gUAV-9" value="&lt;span style=&quot;font-weight: 700;&quot;&gt;service&lt;/span&gt;" style="html=1;strokeColor=none;resizeWidth=1;resizeHeight=1;fillColor=none;part=1;connectable=0;allowArrows=0;deletable=0;whiteSpace=wrap;" vertex="1" parent="Hes8ryXdUXJPciG0gUAV-8">
          <mxGeometry width="150" height="70" relative="1" as="geometry">
            <mxPoint y="30" as="offset" />
          </mxGeometry>
        </mxCell>
        <mxCell id="Hes8ryXdUXJPciG0gUAV-26" value="" style="edgeStyle=orthogonalEdgeStyle;rounded=0;orthogonalLoop=1;jettySize=auto;html=1;" edge="1" parent="Hes8ryXdUXJPciG0gUAV-11" source="Hes8ryXdUXJPciG0gUAV-5" target="Hes8ryXdUXJPciG0gUAV-19">
          <mxGeometry relative="1" as="geometry" />
        </mxCell>
        <mxCell id="Hes8ryXdUXJPciG0gUAV-5" value="«interface»&lt;br&gt;&lt;b&gt;RedisService&lt;/b&gt;" style="html=1;whiteSpace=wrap;" vertex="1" parent="Hes8ryXdUXJPciG0gUAV-11">
          <mxGeometry x="436" y="785" width="110" height="50" as="geometry" />
        </mxCell>
        <mxCell id="Hes8ryXdUXJPciG0gUAV-12" value="Package" style="shape=folder;fontStyle=1;tabWidth=110;tabHeight=30;tabPosition=left;html=1;boundedLbl=1;labelInHeader=1;container=1;collapsible=0;whiteSpace=wrap;" vertex="1" parent="Hes8ryXdUXJPciG0gUAV-11">
          <mxGeometry x="20" y="1264" width="150" height="100" as="geometry" />
        </mxCell>
        <mxCell id="Hes8ryXdUXJPciG0gUAV-13" value="&lt;span style=&quot;font-weight: 700;&quot;&gt;infra&lt;/span&gt;" style="html=1;strokeColor=none;resizeWidth=1;resizeHeight=1;fillColor=none;part=1;connectable=0;allowArrows=0;deletable=0;whiteSpace=wrap;" vertex="1" parent="Hes8ryXdUXJPciG0gUAV-12">
          <mxGeometry width="150" height="70" relative="1" as="geometry">
            <mxPoint y="30" as="offset" />
          </mxGeometry>
        </mxCell>
        <mxCell id="Hes8ryXdUXJPciG0gUAV-15" value="&lt;p style=&quot;margin:0px;margin-top:4px;text-align:center;&quot;&gt;&lt;b&gt;BaseRedisConfig&lt;/b&gt;&lt;/p&gt;&lt;hr size=&quot;1&quot; style=&quot;border-style:solid;&quot;&gt;&lt;div style=&quot;height:2px;&quot;&gt;&lt;/div&gt;" style="verticalAlign=top;align=left;overflow=fill;html=1;whiteSpace=wrap;" vertex="1" parent="Hes8ryXdUXJPciG0gUAV-11">
          <mxGeometry x="421" y="140" width="140" height="60" as="geometry" />
        </mxCell>
        <mxCell id="Hes8ryXdUXJPciG0gUAV-17" value="&lt;p style=&quot;margin:0px;margin-top:4px;text-align:center;&quot;&gt;&lt;b&gt;JedisPoolFactory&lt;/b&gt;&lt;/p&gt;&lt;hr size=&quot;1&quot; style=&quot;border-style:solid;&quot;&gt;&lt;div style=&quot;height:2px;&quot;&gt;&lt;/div&gt;" style="verticalAlign=top;align=left;overflow=fill;html=1;whiteSpace=wrap;" vertex="1" parent="Hes8ryXdUXJPciG0gUAV-11">
          <mxGeometry x="421" y="310" width="140" height="60" as="geometry" />
        </mxCell>
        <mxCell id="Hes8ryXdUXJPciG0gUAV-19" value="&lt;p style=&quot;margin:0px;margin-top:4px;text-align:center;&quot;&gt;&lt;b&gt;RedisServiceImp&lt;/b&gt;&lt;/p&gt;&lt;hr size=&quot;1&quot; style=&quot;border-style:solid;&quot;&gt;&lt;div style=&quot;height:2px;&quot;&gt;&lt;/div&gt;" style="verticalAlign=top;align=left;overflow=fill;html=1;whiteSpace=wrap;" vertex="1" parent="Hes8ryXdUXJPciG0gUAV-11">
          <mxGeometry x="630" y="780" width="140" height="60" as="geometry" />
        </mxCell>
        <mxCell id="Hes8ryXdUXJPciG0gUAV-23" style="edgeStyle=orthogonalEdgeStyle;rounded=0;orthogonalLoop=1;jettySize=auto;html=1;entryX=0;entryY=0.5;entryDx=0;entryDy=0;" edge="1" parent="Hes8ryXdUXJPciG0gUAV-11" source="Hes8ryXdUXJPciG0gUAV-20" target="Hes8ryXdUXJPciG0gUAV-15">
          <mxGeometry relative="1" as="geometry" />
        </mxCell>
        <mxCell id="Hes8ryXdUXJPciG0gUAV-24" style="edgeStyle=orthogonalEdgeStyle;rounded=0;orthogonalLoop=1;jettySize=auto;html=1;entryX=0;entryY=0.5;entryDx=0;entryDy=0;" edge="1" parent="Hes8ryXdUXJPciG0gUAV-11" source="Hes8ryXdUXJPciG0gUAV-20" target="Hes8ryXdUXJPciG0gUAV-17">
          <mxGeometry relative="1" as="geometry" />
        </mxCell>
        <mxCell id="Hes8ryXdUXJPciG0gUAV-20" value="redis" style="shape=folder;fontStyle=1;spacingTop=10;tabWidth=40;tabHeight=14;tabPosition=left;html=1;whiteSpace=wrap;" vertex="1" parent="Hes8ryXdUXJPciG0gUAV-11">
          <mxGeometry x="267" y="225" width="70" height="50" as="geometry" />
        </mxCell>
        <mxCell id="Hes8ryXdUXJPciG0gUAV-25" value="" style="edgeStyle=orthogonalEdgeStyle;rounded=0;orthogonalLoop=1;jettySize=auto;html=1;" edge="1" parent="Hes8ryXdUXJPciG0gUAV-11" source="Hes8ryXdUXJPciG0gUAV-21" target="Hes8ryXdUXJPciG0gUAV-5">
          <mxGeometry relative="1" as="geometry" />
        </mxCell>
        <mxCell id="Hes8ryXdUXJPciG0gUAV-21" value="redis" style="shape=folder;fontStyle=1;spacingTop=10;tabWidth=40;tabHeight=14;tabPosition=left;html=1;whiteSpace=wrap;" vertex="1" parent="Hes8ryXdUXJPciG0gUAV-11">
          <mxGeometry x="267" y="785" width="70" height="50" as="geometry" />
        </mxCell>
        <mxCell id="Hes8ryXdUXJPciG0gUAV-31" style="edgeStyle=orthogonalEdgeStyle;rounded=0;orthogonalLoop=1;jettySize=auto;html=1;entryX=0.5;entryY=-0.04;entryDx=0;entryDy=0;entryPerimeter=0;" edge="1" parent="Hes8ryXdUXJPciG0gUAV-11" source="Hes8ryXdUXJPciG0gUAV-6" target="Hes8ryXdUXJPciG0gUAV-8">
          <mxGeometry relative="1" as="geometry" />
        </mxCell>
        <mxCell id="Hes8ryXdUXJPciG0gUAV-38" style="edgeStyle=orthogonalEdgeStyle;rounded=0;orthogonalLoop=1;jettySize=auto;html=1;entryX=0;entryY=0.5;entryDx=0;entryDy=0;" edge="1" parent="Hes8ryXdUXJPciG0gUAV-11" source="Hes8ryXdUXJPciG0gUAV-32" target="Hes8ryXdUXJPciG0gUAV-34">
          <mxGeometry relative="1" as="geometry" />
        </mxCell>
        <mxCell id="Hes8ryXdUXJPciG0gUAV-32" value="exception" style="shape=folder;fontStyle=1;spacingTop=10;tabWidth=40;tabHeight=14;tabPosition=left;html=1;whiteSpace=wrap;" vertex="1" parent="Hes8ryXdUXJPciG0gUAV-11">
          <mxGeometry x="267" y="1214" width="70" height="50" as="geometry" />
        </mxCell>
        <mxCell id="Hes8ryXdUXJPciG0gUAV-39" style="edgeStyle=orthogonalEdgeStyle;rounded=0;orthogonalLoop=1;jettySize=auto;html=1;entryX=0;entryY=0.5;entryDx=0;entryDy=0;" edge="1" parent="Hes8ryXdUXJPciG0gUAV-11" source="Hes8ryXdUXJPciG0gUAV-33" target="Hes8ryXdUXJPciG0gUAV-35">
          <mxGeometry relative="1" as="geometry" />
        </mxCell>
        <mxCell id="Hes8ryXdUXJPciG0gUAV-33" value="response" style="shape=folder;fontStyle=1;spacingTop=10;tabWidth=40;tabHeight=14;tabPosition=left;html=1;whiteSpace=wrap;" vertex="1" parent="Hes8ryXdUXJPciG0gUAV-11">
          <mxGeometry x="267" y="1369" width="70" height="50" as="geometry" />
        </mxCell>
        <mxCell id="Hes8ryXdUXJPciG0gUAV-34" value="&lt;p style=&quot;margin: 4px 0px 0px; text-align: center; font-size: 11px;&quot;&gt;&lt;b style=&quot;&quot;&gt;&lt;font style=&quot;font-size: 11px;&quot;&gt;GlobalExceptionHandler&lt;/font&gt;&lt;/b&gt;&lt;/p&gt;&lt;hr size=&quot;1&quot; style=&quot;border-style: solid; font-size: 11px;&quot;&gt;&lt;div style=&quot;height: 2px; font-size: 11px;&quot;&gt;&lt;/div&gt;" style="verticalAlign=top;align=left;overflow=fill;html=1;whiteSpace=wrap;" vertex="1" parent="Hes8ryXdUXJPciG0gUAV-11">
          <mxGeometry x="630" y="1209" width="140" height="60" as="geometry" />
        </mxCell>
        <mxCell id="Hes8ryXdUXJPciG0gUAV-35" value="&lt;p style=&quot;margin: 4px 0px 0px; text-align: center; font-size: 11px;&quot;&gt;&lt;b&gt;ApiResponse&lt;/b&gt;&lt;/p&gt;&lt;hr size=&quot;1&quot; style=&quot;border-style: solid; font-size: 11px;&quot;&gt;&lt;div style=&quot;height: 2px; font-size: 11px;&quot;&gt;&lt;/div&gt;" style="verticalAlign=top;align=left;overflow=fill;html=1;whiteSpace=wrap;" vertex="1" parent="Hes8ryXdUXJPciG0gUAV-11">
          <mxGeometry x="630" y="1364" width="140" height="60" as="geometry" />
        </mxCell>
        <mxCell id="Hes8ryXdUXJPciG0gUAV-36" style="edgeStyle=orthogonalEdgeStyle;rounded=0;orthogonalLoop=1;jettySize=auto;html=1;entryX=0;entryY=0;entryDx=0;entryDy=32;entryPerimeter=0;" edge="1" parent="Hes8ryXdUXJPciG0gUAV-11" source="Hes8ryXdUXJPciG0gUAV-12" target="Hes8ryXdUXJPciG0gUAV-32">
          <mxGeometry relative="1" as="geometry" />
        </mxCell>
        <mxCell id="Hes8ryXdUXJPciG0gUAV-37" style="edgeStyle=orthogonalEdgeStyle;rounded=0;orthogonalLoop=1;jettySize=auto;html=1;entryX=0;entryY=0;entryDx=0;entryDy=32;entryPerimeter=0;" edge="1" parent="Hes8ryXdUXJPciG0gUAV-11" source="Hes8ryXdUXJPciG0gUAV-12" target="Hes8ryXdUXJPciG0gUAV-33">
          <mxGeometry relative="1" as="geometry" />
        </mxCell>
      </root>
    </mxGraphModel>
  </diagram>
</mxfile>
